<svg xmlns="http://www.w3.org/2000/svg" xml:space="preserve" viewBox="0 0 70 70" width="2.5vw" height="30px,15px,3vw,2.5vw" fill="#2d81c2"><style>.ARCADE_svg__st1{fill:#2d81c2}</style><circle cx="35" cy="12.69" r="10.69" class="ARCADE_svg__st1"></circle><path d="M35 2c-5.9 0-10.69 4.79-10.69 10.69 0 5.17 3.67 9.48 8.55 10.47v-1.21h4.28v1.21c4.88-.99 8.55-5.3 8.55-10.47C45.69 6.79 40.9 2 35 2z" class="ARCADE_svg__st1"></path><path d="M32.86 27.48v12.28h4.28V27.48c-.7.1-1.41.17-2.14.17s-1.44-.07-2.14-.17z" style="fill: rgb(255, 255, 255);"></path><path d="M41.41 47.6H28.59v-3.28c0-.55.45-1 1-1h10.83c.55 0 1 .45 1 1v3.28zM55.66 47.6h-7.13v-1.85c0-.55.45-1 1-1h5.13c.55 0 1 .45 1 1v1.85zM58.94 62H11.06c-.55 0-1-.45-1-1v-8.27c0-.55.45-1 1-1h47.88c.55 0 1 .45 1 1V61c0 .55-.45 1-1 1z" class="ARCADE_svg__st1"></path></svg>