<svg xmlns="http://www.w3.org/2000/svg" xml:space="preserve" viewBox="0 0 70 70" width="2.5vw" height="30px,15px,3vw,2.5vw" fill="#2d81c2"><style>.FH_svg__st2{fill:#2d81c2}.FH_svg__st1{fill:#2d81c2}</style><path d="M12.99 29.54c.02 5.09.02 6.49 1.42 13.48.87 4.33.64 6.8-3.78 1.41-4.61-5.61-6.97-12.84-4.85-19.01 1.64-4.76 7.16-5.83 7.21 4.12zM18.51 28.7c1.11-2.67 3.88-3.82 5.17-1.99 1.3 1.82 1.8 4.14.83 6.23-1.95 4.15-3.12 7.29-4.91 7.28-1.99-.02-2.4-8.38-1.09-11.52zM28 39.34c2.81-.07 3.59 2.34 2.84 4.11-.75 1.77-2.97 2.07-4.96 1-2-1.05-.69-5.04 2.12-5.11z" class="FH_svg__st2"></path><path d="M61.92 30.44c-2.58-5.09-4.95-7.91-5.95-8.53-.79 4.44-3.57 10.03-10.11 12.65-2.94 1.18-5.76 1.78-8.38 1.78-.96 0-1.86-.1-2.72-.26 3.41 11.14 3.4 15.33-.78 16.72-4.19 1.4-6.99-1.4-12.58-6.99-1.4-1.4 0 5.59 1.4 8.38-4.19 1.4-10.03.8-8.98 1.72 7.59 6.67 12.12 2.48 14.67 3.84 2.7 1.43 6.89 2.83 13.87 1.43 8.33-1.67 15.37-8.38 16.58-20.43.06-.56 3.08 1.46 4.76 3.07 2.26 2.17 1.53-6.84-1.78-13.38z" class="FH_svg__st1"></path><path d="M51.92 17.98c-1.18-4.3-10.96-9.89-16.71-9.74-9.62-.15-6.82 9.63-3.07 21.78.46 1.48 4.83 3.59 12.16.65 7.32-2.93 8.12-10.86 7.62-12.69zm-5.97.68c-.2 2.14-1.54 3.39-3.12 3.5-1.58.1-3-.91-2.81-3.11.2-2.19 1.75-3.46 3.34-3.59l.18-.01-.18.01c1.59-.1 2.77 1.08 2.59 3.2z" class="FH_svg__st1"></path></svg>