<svg xmlns="http://www.w3.org/2000/svg" xml:space="preserve" viewBox="0 0 70 70" width="2.5vw" height="30px,15px,3vw,2.5vw" fill="#2d81c2"><path d="M55.59 25.34c-.21.75-.64 1.43-1.23 1.98.73 2.1 1.14 4.34 1.14 6.68 0 4.73-1.63 9.09-4.33 12.56.97.95 1.83 2.04 2.48 3.31C57.3 45.59 59.5 40.05 59.5 34c0-3.91-.92-7.6-2.56-10.89-.24.97-.73 1.7-1.35 2.23zM16.56 19.5c.93-.11 2.02-.19 3.15-.19.34 0 .65.02.97.04 1.96-1.92 4.31-3.43 6.91-4.45.01-1.59.13-3.03.31-4.35a24.548 24.548 0 0 0-12.16 8.34c.28.18.56.38.82.61zM30.05 57.77c-.09-.57-.16-1.13-.2-1.67-.76-.5-1.35-1.24-1.64-2.13-.07-.21-.11-.46-.16-.7-.12-.05-.25-.09-.37-.14-.42.29-.95.76-1.37 1.37-.41.6-.93 1.24-1.42 1.81 1.65.75 3.4 1.33 5.22 1.7-.02-.08-.05-.16-.06-.24z" class="LIVEARENA_svg__st1"></path><path d="M58.02 7.26c-1.84 1.34-5.2 3.03-10.75 4.29-.62.15-1.25.3-1.85.45a62.83 62.83 0 0 1 5.33-2.52c6.22-2.52 6.38-6.25 6.38-6.25-1.59 1.62-4.61 3.87-9.87 6.06-1.75.73-3.43 1.52-4.9 2.27 1.85-1.21 4.02-2.53 6.26-3.63 6-2.99 5.88-6.71 5.88-6.71-1.44 1.73-4.27 4.21-9.34 6.78-1.07.54-2.1 1.11-3.08 1.67 0 0 4.91-4.04 5.79-4.8C49.94 3.1 50.9-.48 50.2.4c-2.29 2.17-4.58 4.11-7.83 6.61-1.68 1.29-2.62 1.86-3.89 3.13 1.49-2.28 2.3-2.75 4.96-5.04 2.22-1.92 2.92-5.88 2.29-4.96-1.11 1.59-3.66 3.81-5.87 5.75-2.39 2.1-3.84 4.8-3.87 4.79.44-2.26 1.79-4.93 6.11-8.99 0 0-2.98 1.07-5.44 4-1.35 1.61-1.88 3.91-2.47 5.13-.31-1.29-.82-4.47.41-7.82 0 0-3.84 5.03-2.85 15.59.55 5.93-.9 7.94-3.04 8.33-.85.15-1.67-.2-1.67-.2 1.68-.39 2.3-1.92 2.3-1.92-.7.3-1.9.63-5.23-.77-3.62-1.52-9.65-.14-9.65-.14.11-1.49-1.39-1.85-1.39-1.85.19 2.19-2.51 2.19-2.45 2.19l.42 1.18-1.28.11-.43.28.14 1.65-1.5.13 2.25 1.94-.52 2.26 2.05-1.15c.39 1.68 1.86 2.18 1.86 2.18s.55.91.93 1.51c.2.32 1.03.86 1.19.85.16-.01-.25-1.09-.01-1.91 0 0 1.66.92 2.11 2.36.75 2.34 5.53 6.5 5.53 6.5s-2.99.88-3.5.69c-.51-.19-3.28-1.49-4.4-1.58-1.24-.1-3.13.72-3.13.72s.37.38 1.35.3c.98-.09 1.53-.36 2.86.16 1.28.62 2.62.93 1.2 1.55-1.42.62-2.09 1.41-2.09 1.41s2.39-.35 3.85-.83c2.56-.83 5.69.13 6.3 1.26-.41.85-.82 1.59-1.21 2.17-.5.74-1.83 2.52-2.35 2.68-.52.16-3.51.83-4.45 1.44-1.04.68-2.04 2.48-2.04 2.48s.52.08 1.25-.59c.72-.66.99-1.22 2.36-1.62 1.39-.29 2.65-.86 1.9.49-.75 1.36-.79 2.39-.79 2.39s1.68-1.74 2.55-3.01c1.59-2.34 4.39-3.91 5.41-3.19.61-.36 1.28-1.27 1.93-2.46 1.47-.07 2.73-.22 2.73-.22-.91 2.05-1.38 5.37-1.06 6.35.13.4.95-2.56 2.27-3.43.19-.12-.97 3.61-.28 7.84.13.83 1.12-3.44 2.16-4.51.16-.16-.59 4.18 1.28 7.36.18.31.41-2.58 1.38-4.25.18-.31-.03 3.34 1.41 7.03.06.15 2.3-6.4 2.3-6.4.45 1.55.84 3.08-.38 6.41-1.57 4.25 1.6 7.24 1.6 7.24-1.36-4.3 1.23-7.55 2.4-10.15 1.14-2.54.77-5.42.77-5.42 2.26 3.72-.32 5.06.46 8.49.08.35.53-1.16 1.93-3.35.79-1.23 1.77-3.01 1.44-5.7-.69-5.65-8.41-7.64-11.06-11.57-1.48-2.2-2.19-6.36-1.51-6.41 3.47-.28 7.85 6.37 7.85 6.37.55-2.02.34-4.45.34-4.45l2.59 1.49c-.45-5.13-2.36-8.08-2.36-8.08 1.49.11 2.34 1.51 2.34 1.51s-.04-3.19-1.92-5c-.1-.1-.22-.2-.34-.3 1.11-.08 2.7-.59 3.3-.84.72-.32-2.36-1.53-2.36-1.53s2.97-.01 3.91-.6c.94-.57-1.61-1.5-1.61-1.5s2.97-.1 3.14-.86c.19-.76-3.54-1.26-3.54-1.26s3.67.01 3.84-.99c.17-1-3.52-1.01-3.52-1.01s4.12-.52 4.29-1.52c.17-.78-6.9.15-6.9.15s2.67-.39 5.14-1.24c1.85-.64 3.96-1.94 2.56-1.65-1.87.37-5.47 1.11-9.12 1.12 2.04-.34 8.33-1.05 10.77-4.12.22-.28-3.49 1.9-10.92 2.39 2.38-.81 3.33-1.02 6.2-1.81 5.48-1.53 6.14-4.9 6.14-4.9z" style="fill: #2d81c2"></path></svg>