<svg xmlns="http://www.w3.org/2000/svg" xml:space="preserve" viewBox="0 0 70 70" width="2.5vw" height="30px,15px,3vw,2.5vw" fill="#2d81c2"><style>.LIVE_svg__st1{fill:#2d81c2}</style><path d="m61.3 18.65-7.72-2.07c.49 1.09.77 2.3.77 3.58v33.69c0 2.93-1.45 5.52-3.67 7.11 2.43.3 4.78-1.22 5.43-3.64l8.72-32.54c.71-2.67-.88-5.42-3.53-6.13zM45.6 15.16h-6.88c.06.19.15.37.2.56l8.72 32.54a8.746 8.746 0 0 1-5.48 10.48l.36.1h3.08c2.75 0 5-2.25 5-5V20.15c0-2.74-2.25-4.99-5-4.99z" class="LIVE_svg__st2"></path><path d="m44.03 49.23-8.72-32.54c-.08-.29-.19-.55-.31-.82-.01-.02-.01-.04-.02-.06-.04-.09-.1-.17-.14-.25-.1-.18-.21-.36-.33-.53-.07-.09-.14-.17-.21-.26a5.334 5.334 0 0 0-.65-.64c-.16-.13-.32-.24-.49-.35-.08-.05-.16-.11-.25-.16-.23-.13-.46-.23-.71-.32-.04-.01-.07-.03-.1-.04-.28-.1-.57-.16-.87-.21-.09-.01-.18-.01-.27-.02-.22-.02-.44-.04-.67-.03-.07 0-.14.01-.21.01-.3.02-.59.06-.89.14l-6.83 1.83L8.7 18.65c-2.65.71-4.24 3.46-3.53 6.12l8.72 32.54c.08.31.2.6.33.88.04.09.1.17.14.25.1.18.21.36.33.53.07.09.14.17.21.26a5.334 5.334 0 0 0 .65.64c.15.13.32.24.49.35.08.05.16.11.25.16.23.13.46.23.71.32.04.01.07.03.1.05.28.1.57.16.87.21.09.01.18.01.27.02.22.02.45.04.67.03.07 0 .14-.01.2-.01.3-.02.59-.06.89-.14l15-4.03 5.5-1.47a4.986 4.986 0 0 0 3.03-2.33c.48-.83.72-1.8.67-2.79a5.92 5.92 0 0 0-.17-1.01zm-13.02-2.96c-1.23.33-2.62.35-3.91.07-.97.89-2.19 1.57-3.42 1.9a1.258 1.258 0 0 1-1.53-.89c-.18-.67.22-1.35.88-1.53 1.01-.27 2.04-.91 2.76-1.71l.54-.61.77.25c1.02.33 2.24.37 3.25.1.67-.18 1.35.22 1.53.88.19.67-.2 1.36-.87 1.54zm-1.1-4.13c-1.02.27-2.71.29-4.11-.68-.73 1.54-2.2 2.37-3.22 2.64-1.66.44-5.08.21-6.17-3.87-.74-2.75 1-5.23 2.68-7.63.91-1.29 1.84-2.63 2.32-3.93.13-.36.42-.63.78-.72.36-.1.74-.01 1.04.24 1.06.88 2.54 1.57 3.97 2.24 2.65 1.24 5.4 2.52 6.13 5.27 1.08 4.08-1.77 6-3.42 6.44z" style="fill:6c1b18"></path></svg>