<svg xmlns="http://www.w3.org/2000/svg" width="2.5vw" height="30px,15px,45px,2.5vw" fill="#cfaf60" viewBox="0 0 32 32"><style></style>.LOTTERY_svg__st1{fill:#cfaf60}<path d="M16 1.126C7.715 1.126.998 7.843.998 16.128S7.715 31.13 16 31.13s15.002-6.717 15.002-15.002S24.285 1.126 16 1.126zm.272 26.589c-.093 0-.186.003-.278.003-5.741 0-10.47-4.582-10.618-10.355-.15-5.869 4.483-10.749 10.352-10.899.093 0 .186-.003.278-.003 5.741 0 10.47 4.582 10.618 10.355.003.09.003.179.003.272.077 5.792-4.56 10.554-10.355 10.627zm6.246-17.325a9.284 9.284 0 0 0-6.512-2.65c-.083 0-.163 0-.246.003-5.152.134-9.238 4.432-9.104 9.584a9.302 9.302 0 0 0 2.822 6.461 9.296 9.296 0 0 0 6.515 2.65c.083 0 .163-.003.246-.003h.016a9.155 9.155 0 0 0 6.48-2.784 9.15 9.15 0 0 0 2.611-6.547v-.016c0-.077 0-.154-.003-.227a9.291 9.291 0 0 0-2.826-6.47zm-5.606 13.194h-3.61l3.242-8.39h-4.627v-2.963l8.038-.003.784 1.194-3.827 10.163z"></path></svg>