<svg xmlns="http://www.w3.org/2000/svg" xml:space="preserve" viewBox="0 0 70 70" width="2.5vw" height="30px,15px,3vw,2.5vw" fill="#2d81c2"><style>RNGTABLE_svg__st1{fill:#2d81c2}</style><path d="M21.71 8.66 6.09 51.58c-.3.81.13 1.72.94 2.02l18.35 6.68c.81.3 1.72-.13 2.02-.94l15.62-42.92c.3-.81-.13-1.72-.94-2.02L23.73 7.72c-.81-.29-1.72.13-2.02.94zm1.46 37.91a2.828 2.828 0 0 1 3.63-1.69c1.47.54 2.23 2.16 1.69 3.63a2.828 2.828 0 0 1-3.63 1.69 2.828 2.828 0 0 1-1.69-3.63zm3.45-9.47c.54-1.47 2.16-2.23 3.63-1.69s2.23 2.16 1.69 3.63a2.828 2.828 0 0 1-3.63 1.69 2.828 2.828 0 0 1-1.69-3.63zm5.81-15.99a2.828 2.828 0 0 1 3.63-1.69c1.47.54 2.23 2.16 1.69 3.63-.54 1.47-2.16 2.23-3.63 1.69s-2.22-2.16-1.69-3.63zM12.66 42.74a2.828 2.828 0 0 1 3.63-1.69c1.47.54 2.23 2.16 1.69 3.63-.54 1.47-2.16 2.23-3.63 1.69s-2.22-2.16-1.69-3.63zm3.45-9.47a2.828 2.828 0 0 1 3.63-1.69c1.47.54 2.23 2.16 1.69 3.63a2.828 2.828 0 0 1-3.63 1.69 2.825 2.825 0 0 1-1.69-3.63zm5.82-15.98c.54-1.47 2.16-2.23 3.63-1.69s2.23 2.16 1.69 3.63c-.54 1.47-2.16 2.23-3.63 1.69s-2.23-2.16-1.69-3.63z" style="fill: #2d81c2"></path><path d="M46.64 17.74 37.05 44.1l5.55 15.24c.3.81 1.2 1.24 2.02.94l18.35-6.68c.81-.3 1.24-1.2.94-2.02L48.29 8.66a1.58 1.58 0 0 0-2.02-.94l-5.64 2.05 2.77 1.01c1.36.49 2.45 1.49 3.06 2.81.61 1.31.68 2.79.18 4.15zm7.51 23.15c1.47-.54 3.1.22 3.63 1.69.54 1.47-.22 3.1-1.69 3.63-1.47.54-3.1-.22-3.63-1.69-.54-1.47.22-3.1 1.69-3.63zm-6.88 5.51c.54 1.47-.22 3.1-1.69 3.63s-3.1-.22-3.63-1.69c-.54-1.47.22-3.1 1.69-3.63s3.1.22 3.63 1.69z" style="fill: #2d81c2"></path></svg>