<svg xmlns="http://www.w3.org/2000/svg" xml:space="preserve" viewBox="0 0 70 70" width="2.5vw" height="30px,15px,3vw,2.5vw" fill="#2d81c2"><style>.SLOT_svg__st2{fill:#2d81c2}.SLOT_svg__st1{fill:#2d81c2}</style><circle cx="61.55" cy="20" r="5.45" class="SLOT_svg__st1"></circle><path d="M59.4 29.49v4.79h-1.27c-1.18 0-2.14.96-2.14 2.14 0 1.18.96 2.14 2.14 2.14h3.41c1.18 0 2.14-.96 2.14-2.14V29.5c-.69.16-1.41.25-2.14.25-.73-.01-1.45-.1-2.14-.26z" class="SLOT_svg__st2"></path><path d="M11.09 55.65v5.13a2.86 2.86 0 0 0 2.86 2.86h35.19A2.86 2.86 0 0 0 52 60.78v-5.13H11.09zM52 40.45V13.51c0-3.93-3.21-7.14-7.14-7.14H18.23c-3.93 0-7.14 3.21-7.14 7.14v26.95S7 43.05 7 44.55v4.09c0 1.5 1.23 2.73 2.73 2.73h43.64c1.5 0 2.73-1.23 2.73-2.73v-4.09c-.01-1.5-4.1-4.1-4.1-4.1zm-4.09-2.92a4.29 4.29 0 0 1-4.29 4.29H19.47a4.29 4.29 0 0 1-4.29-4.29V14.74a4.29 4.29 0 0 1 4.29-4.29h24.16a4.29 4.29 0 0 1 4.29 4.29v22.79z" class="SLOT_svg__st1"></path><path d="M42.82 20H20.27c-.55 0-1-.45-1-1v-3.45c0-.55.45-1 1-1h22.55c.55 0 1 .45 1 1V19c0 .55-.45 1-1 1zM24.73 25.09v11.64c0 .55-.45 1-1 1h-3.45c-.55 0-1-.45-1-1V25.09c0-.55.45-1 1-1h3.45c.55 0 1 .45 1 1zM43.82 25.09v11.64c0 .55-.45 1-1 1h-3.45c-.55 0-1-.45-1-1V25.09c0-.55.45-1 1-1h3.45c.55 0 1 .45 1 1zM34.27 25.09v11.64c0 .55-.45 1-1 1h-3.45c-.55 0-1-.45-1-1V25.09c0-.55.45-1 1-1h3.45c.56 0 1 .45 1 1z" class="SLOT_svg__st2"></path></svg>