<svg xmlns="http://www.w3.org/2000/svg" xml:space="preserve" viewBox="0 0 70 70" width="2.5vw" height="30px,15px,3vw,2.5vw" fill="#2d81c2"><style>.SPORTS_svg__st1{fill:#2d81c2}.SPORTS_svg__st13{fill:#2d81c2}</style><path d="M13.97 52.76c2.94 3.47 6.58 6.05 10.57 7.68l-3.6-6.25-6.97-1.43zM11.59 20.48c-2.4 3.86-3.79 8.23-4.09 12.69l4.9-5.43-.81-7.26zM41.84 8.35a27.58 27.58 0 0 0-13.86.07l6.91 3.08 6.95-3.15zM62.5 33.38a27.37 27.37 0 0 0-4.35-13.26l-.81 7.61 5.16 5.65zM45.18 60.55c2.09-.83 4.12-1.9 6.03-3.28 1.91-1.38 3.56-2.99 5-4.72l-7.35 1.55-3.68 6.45zM26.38 32.32l3.24 9.95H40.1l3.24-9.95-8.48-6.15z" class="SPORTS_svg__st13"></path><path d="m60.69 37.23-5.97-6.54-7.5 2.43-3.5 10.76 4.59 6.31 8.92-1.88 2.11-.45c1.48-2.8 2.47-5.81 2.92-8.91l-1.57-1.72zM45.18 52.6l-4.66-6.4H29.19l-4.64 6.38 4.49 7.78.98 1.69c3.21.59 6.51.6 9.76.04l1.07-1.87 4.33-7.62zM21.36 50.27 26 43.89l-3.5-10.76-7.46-2.42-6 6.64-1.34 1.47c.44 3.19 1.47 6.32 3.07 9.27l1.86.38 8.73 1.8zM36.83 14.93v7.8L46 29.39l7.46-2.42.95-8.97.24-2.24a27.577 27.577 0 0 0-7.55-5.47l-2.14.97-8.13 3.67zM16.28 26.98l7.44 2.41 9.17-6.65v-7.83l-8.19-3.65-1.96-.87a27.86 27.86 0 0 0-3.94 2.35c-1.37 1-2.61 2.11-3.74 3.29l.23 2.07.99 8.88z" class="SPORTS_svg__st1"></path></svg>